<svg width="185" height="145" viewBox="0 0 185 145" fill="none" xmlns="http://www.w3.org/2000/svg">
<circle cx="2.5" cy="2.5" r="2.5" transform="matrix(-1 0 0 1 185 0)" fill="#15313F"/>
<circle cx="2.5" cy="2.5" r="2.5" transform="matrix(-1 0 0 1 65 0)" fill="#15313F"/>
<circle cx="2.5" cy="2.5" r="2.5" transform="matrix(-1 0 0 1 125 0)" fill="#15313F"/>
<circle cx="2.5" cy="2.5" r="2.5" transform="matrix(-1 0 0 1 5 0)" fill="#15313F"/>
<circle cx="2.5" cy="2.5" r="2.5" transform="matrix(-1 0 0 1 155 0)" fill="#15313F"/>
<circle cx="2.5" cy="2.5" r="2.5" transform="matrix(-1 0 0 1 35 0)" fill="#15313F"/>
<circle cx="2.5" cy="2.5" r="2.5" transform="matrix(-1 0 0 1 95 0)" fill="#15313F"/>
<circle cx="2.5" cy="2.5" r="2.5" transform="matrix(-1 0 0 1 175 0)" fill="#15313F"/>
<circle cx="2.5" cy="2.5" r="2.5" transform="matrix(-1 0 0 1 55 0)" fill="#15313F"/>
<circle cx="2.5" cy="2.5" r="2.5" transform="matrix(-1 0 0 1 115 0)" fill="#15313F"/>
<circle cx="2.5" cy="2.5" r="2.5" transform="matrix(-1 0 0 1 145 0)" fill="#15313F"/>
<circle cx="2.5" cy="2.5" r="2.5" transform="matrix(-1 0 0 1 25 0)" fill="#15313F"/>
<circle cx="2.5" cy="2.5" r="2.5" transform="matrix(-1 0 0 1 85 0)" fill="#15313F"/>
<circle cx="2.5" cy="2.5" r="2.5" transform="matrix(-1 0 0 1 165 0)" fill="#15313F"/>
<circle cx="2.5" cy="2.5" r="2.5" transform="matrix(-1 0 0 1 45 0)" fill="#15313F"/>
<circle cx="2.5" cy="2.5" r="2.5" transform="matrix(-1 0 0 1 105 0)" fill="#15313F"/>
<circle cx="2.5" cy="2.5" r="2.5" transform="matrix(-1 0 0 1 135 0)" fill="#15313F"/>
<circle cx="2.5" cy="2.5" r="2.5" transform="matrix(-1 0 0 1 15 0)" fill="#15313F"/>
<circle cx="2.5" cy="2.5" r="2.5" transform="matrix(-1 0 0 1 75 0)" fill="#15313F"/>
<circle cx="2.5" cy="2.5" r="2.5" transform="matrix(-1 0 0 1 185 80)" fill="#15313F"/>
<circle cx="2.5" cy="2.5" r="2.5" transform="matrix(-1 0 0 1 65 80)" fill="#15313F"/>
<circle cx="2.5" cy="2.5" r="2.5" transform="matrix(-1 0 0 1 125 80)" fill="#15313F"/>
<circle cx="2.5" cy="2.5" r="2.5" transform="matrix(-1 0 0 1 5 80)" fill="#15313F"/>
<circle cx="2.5" cy="2.5" r="2.5" transform="matrix(-1 0 0 1 155 80)" fill="#15313F"/>
<circle cx="2.5" cy="2.5" r="2.5" transform="matrix(-1 0 0 1 35 80)" fill="#15313F"/>
<circle cx="2.5" cy="2.5" r="2.5" transform="matrix(-1 0 0 1 95 80)" fill="#15313F"/>
<circle cx="2.5" cy="2.5" r="2.5" transform="matrix(-1 0 0 1 175 80)" fill="#15313F"/>
<circle cx="2.5" cy="2.5" r="2.5" transform="matrix(-1 0 0 1 55 80)" fill="#15313F"/>
<circle cx="2.5" cy="2.5" r="2.5" transform="matrix(-1 0 0 1 115 80)" fill="#15313F"/>
<circle cx="2.5" cy="2.5" r="2.5" transform="matrix(-1 0 0 1 145 80)" fill="#15313F"/>
<circle cx="2.5" cy="2.5" r="2.5" transform="matrix(-1 0 0 1 25 80)" fill="#15313F"/>
<circle cx="2.5" cy="2.5" r="2.5" transform="matrix(-1 0 0 1 85 80)" fill="#15313F"/>
<circle cx="2.5" cy="2.5" r="2.5" transform="matrix(-1 0 0 1 165 80)" fill="#15313F"/>
<circle cx="2.5" cy="2.5" r="2.5" transform="matrix(-1 0 0 1 45 80)" fill="#15313F"/>
<circle cx="2.5" cy="2.5" r="2.5" transform="matrix(-1 0 0 1 105 80)" fill="#15313F"/>
<circle cx="2.5" cy="2.5" r="2.5" transform="matrix(-1 0 0 1 135 80)" fill="#15313F"/>
<circle cx="2.5" cy="2.5" r="2.5" transform="matrix(-1 0 0 1 15 80)" fill="#15313F"/>
<circle cx="2.5" cy="2.5" r="2.5" transform="matrix(-1 0 0 1 75 80)" fill="#15313F"/>
<circle cx="2.5" cy="2.5" r="2.5" transform="matrix(-1 0 0 1 185 110)" fill="#15313F"/>
<circle cx="2.5" cy="2.5" r="2.5" transform="matrix(-1 0 0 1 65 110)" fill="#15313F"/>
<circle cx="2.5" cy="2.5" r="2.5" transform="matrix(-1 0 0 1 125 110)" fill="#15313F"/>
<circle cx="2.5" cy="2.5" r="2.5" transform="matrix(-1 0 0 1 5 110)" fill="#15313F"/>
<circle cx="2.5" cy="2.5" r="2.5" transform="matrix(-1 0 0 1 155 110)" fill="#15313F"/>
<circle cx="2.5" cy="2.5" r="2.5" transform="matrix(-1 0 0 1 35 110)" fill="#15313F"/>
<circle cx="2.5" cy="2.5" r="2.5" transform="matrix(-1 0 0 1 95 110)" fill="#15313F"/>
<circle cx="2.5" cy="2.5" r="2.5" transform="matrix(-1 0 0 1 175 110)" fill="#15313F"/>
<circle cx="2.5" cy="2.5" r="2.5" transform="matrix(-1 0 0 1 55 110)" fill="#15313F"/>
<circle cx="2.5" cy="2.5" r="2.5" transform="matrix(-1 0 0 1 115 110)" fill="#15313F"/>
<circle cx="2.5" cy="2.5" r="2.5" transform="matrix(-1 0 0 1 145 110)" fill="#15313F"/>
<circle cx="2.5" cy="2.5" r="2.5" transform="matrix(-1 0 0 1 25 110)" fill="#15313F"/>
<circle cx="2.5" cy="2.5" r="2.5" transform="matrix(-1 0 0 1 85 110)" fill="#15313F"/>
<circle cx="2.5" cy="2.5" r="2.5" transform="matrix(-1 0 0 1 165 110)" fill="#15313F"/>
<circle cx="2.5" cy="2.5" r="2.5" transform="matrix(-1 0 0 1 45 110)" fill="#15313F"/>
<circle cx="2.5" cy="2.5" r="2.5" transform="matrix(-1 0 0 1 105 110)" fill="#15313F"/>
<circle cx="2.5" cy="2.5" r="2.5" transform="matrix(-1 0 0 1 135 110)" fill="#15313F"/>
<circle cx="2.5" cy="2.5" r="2.5" transform="matrix(-1 0 0 1 15 110)" fill="#15313F"/>
<circle cx="2.5" cy="2.5" r="2.5" transform="matrix(-1 0 0 1 75 110)" fill="#15313F"/>
<circle cx="2.5" cy="2.5" r="2.5" transform="matrix(-1 0 0 1 185 140)" fill="#15313F"/>
<circle cx="2.5" cy="2.5" r="2.5" transform="matrix(-1 0 0 1 65 140)" fill="#15313F"/>
<circle cx="2.5" cy="2.5" r="2.5" transform="matrix(-1 0 0 1 125 140)" fill="#15313F"/>
<circle cx="2.5" cy="2.5" r="2.5" transform="matrix(-1 0 0 1 5 140)" fill="#15313F"/>
<circle cx="2.5" cy="2.5" r="2.5" transform="matrix(-1 0 0 1 155 140)" fill="#15313F"/>
<circle cx="2.5" cy="2.5" r="2.5" transform="matrix(-1 0 0 1 35 140)" fill="#15313F"/>
<circle cx="2.5" cy="2.5" r="2.5" transform="matrix(-1 0 0 1 95 140)" fill="#15313F"/>
<circle cx="2.5" cy="2.5" r="2.5" transform="matrix(-1 0 0 1 175 140)" fill="#15313F"/>
<circle cx="2.5" cy="2.5" r="2.5" transform="matrix(-1 0 0 1 55 140)" fill="#15313F"/>
<circle cx="2.5" cy="2.5" r="2.5" transform="matrix(-1 0 0 1 115 140)" fill="#15313F"/>
<circle cx="2.5" cy="2.5" r="2.5" transform="matrix(-1 0 0 1 145 140)" fill="#15313F"/>
<circle cx="2.5" cy="2.5" r="2.5" transform="matrix(-1 0 0 1 25 140)" fill="#15313F"/>
<circle cx="2.5" cy="2.5" r="2.5" transform="matrix(-1 0 0 1 85 140)" fill="#15313F"/>
<circle cx="2.5" cy="2.5" r="2.5" transform="matrix(-1 0 0 1 165 140)" fill="#15313F"/>
<circle cx="2.5" cy="2.5" r="2.5" transform="matrix(-1 0 0 1 45 140)" fill="#15313F"/>
<circle cx="2.5" cy="2.5" r="2.5" transform="matrix(-1 0 0 1 105 140)" fill="#15313F"/>
<circle cx="2.5" cy="2.5" r="2.5" transform="matrix(-1 0 0 1 135 140)" fill="#15313F"/>
<circle cx="2.5" cy="2.5" r="2.5" transform="matrix(-1 0 0 1 15 140)" fill="#15313F"/>
<circle cx="2.5" cy="2.5" r="2.5" transform="matrix(-1 0 0 1 75 140)" fill="#15313F"/>
<circle cx="2.5" cy="2.5" r="2.5" transform="matrix(-1 0 0 1 185 40)" fill="#15313F"/>
<circle cx="2.5" cy="2.5" r="2.5" transform="matrix(-1 0 0 1 65 40)" fill="#15313F"/>
<circle cx="2.5" cy="2.5" r="2.5" transform="matrix(-1 0 0 1 125 40)" fill="#15313F"/>
<circle cx="2.5" cy="2.5" r="2.5" transform="matrix(-1 0 0 1 5 40)" fill="#15313F"/>
<circle cx="2.5" cy="2.5" r="2.5" transform="matrix(-1 0 0 1 155 40)" fill="#15313F"/>
<circle cx="2.5" cy="2.5" r="2.5" transform="matrix(-1 0 0 1 35 40)" fill="#15313F"/>
<circle cx="2.5" cy="2.5" r="2.5" transform="matrix(-1 0 0 1 95 40)" fill="#15313F"/>
<circle cx="2.5" cy="2.5" r="2.5" transform="matrix(-1 0 0 1 175 40)" fill="#15313F"/>
<circle cx="2.5" cy="2.5" r="2.5" transform="matrix(-1 0 0 1 55 40)" fill="#15313F"/>
<circle cx="2.5" cy="2.5" r="2.5" transform="matrix(-1 0 0 1 115 40)" fill="#15313F"/>
<circle cx="2.5" cy="2.5" r="2.5" transform="matrix(-1 0 0 1 145 40)" fill="#15313F"/>
<circle cx="2.5" cy="2.5" r="2.5" transform="matrix(-1 0 0 1 25 40)" fill="#15313F"/>
<circle cx="2.5" cy="2.5" r="2.5" transform="matrix(-1 0 0 1 85 40)" fill="#15313F"/>
<circle cx="2.5" cy="2.5" r="2.5" transform="matrix(-1 0 0 1 165 40)" fill="#15313F"/>
<circle cx="2.5" cy="2.5" r="2.5" transform="matrix(-1 0 0 1 45 40)" fill="#15313F"/>
<circle cx="2.5" cy="2.5" r="2.5" transform="matrix(-1 0 0 1 105 40)" fill="#15313F"/>
<circle cx="2.5" cy="2.5" r="2.5" transform="matrix(-1 0 0 1 135 40)" fill="#15313F"/>
<circle cx="2.5" cy="2.5" r="2.5" transform="matrix(-1 0 0 1 15 40)" fill="#15313F"/>
<circle cx="2.5" cy="2.5" r="2.5" transform="matrix(-1 0 0 1 75 40)" fill="#15313F"/>
<circle cx="2.5" cy="2.5" r="2.5" transform="matrix(-1 0 0 1 185 20)" fill="#15313F"/>
<circle cx="2.5" cy="2.5" r="2.5" transform="matrix(-1 0 0 1 65 20)" fill="#15313F"/>
<circle cx="2.5" cy="2.5" r="2.5" transform="matrix(-1 0 0 1 125 20)" fill="#15313F"/>
<circle cx="2.5" cy="2.5" r="2.5" transform="matrix(-1 0 0 1 5 20)" fill="#15313F"/>
<circle cx="2.5" cy="2.5" r="2.5" transform="matrix(-1 0 0 1 155 20)" fill="#15313F"/>
<circle cx="2.5" cy="2.5" r="2.5" transform="matrix(-1 0 0 1 35 20)" fill="#15313F"/>
<circle cx="2.5" cy="2.5" r="2.5" transform="matrix(-1 0 0 1 95 20)" fill="#15313F"/>
<circle cx="2.5" cy="2.5" r="2.5" transform="matrix(-1 0 0 1 175 20)" fill="#15313F"/>
<circle cx="2.5" cy="2.5" r="2.5" transform="matrix(-1 0 0 1 55 20)" fill="#15313F"/>
<circle cx="2.5" cy="2.5" r="2.5" transform="matrix(-1 0 0 1 115 20)" fill="#15313F"/>
<circle cx="2.5" cy="2.5" r="2.5" transform="matrix(-1 0 0 1 145 20)" fill="#15313F"/>
<circle cx="2.5" cy="2.5" r="2.5" transform="matrix(-1 0 0 1 25 20)" fill="#15313F"/>
<circle cx="2.5" cy="2.5" r="2.5" transform="matrix(-1 0 0 1 85 20)" fill="#15313F"/>
<circle cx="2.5" cy="2.5" r="2.5" transform="matrix(-1 0 0 1 165 20)" fill="#15313F"/>
<circle cx="2.5" cy="2.5" r="2.5" transform="matrix(-1 0 0 1 45 20)" fill="#15313F"/>
<circle cx="2.5" cy="2.5" r="2.5" transform="matrix(-1 0 0 1 105 20)" fill="#15313F"/>
<circle cx="2.5" cy="2.5" r="2.5" transform="matrix(-1 0 0 1 135 20)" fill="#15313F"/>
<circle cx="2.5" cy="2.5" r="2.5" transform="matrix(-1 0 0 1 15 20)" fill="#15313F"/>
<circle cx="2.5" cy="2.5" r="2.5" transform="matrix(-1 0 0 1 75 20)" fill="#15313F"/>
<circle cx="2.5" cy="2.5" r="2.5" transform="matrix(-1 0 0 1 185 60)" fill="#15313F"/>
<circle cx="2.5" cy="2.5" r="2.5" transform="matrix(-1 0 0 1 65 60)" fill="#15313F"/>
<circle cx="2.5" cy="2.5" r="2.5" transform="matrix(-1 0 0 1 125 60)" fill="#15313F"/>
<circle cx="2.5" cy="2.5" r="2.5" transform="matrix(-1 0 0 1 5 60)" fill="#15313F"/>
<circle cx="2.5" cy="2.5" r="2.5" transform="matrix(-1 0 0 1 155 60)" fill="#15313F"/>
<circle cx="2.5" cy="2.5" r="2.5" transform="matrix(-1 0 0 1 35 60)" fill="#15313F"/>
<circle cx="2.5" cy="2.5" r="2.5" transform="matrix(-1 0 0 1 95 60)" fill="#15313F"/>
<circle cx="2.5" cy="2.5" r="2.5" transform="matrix(-1 0 0 1 175 60)" fill="#15313F"/>
<circle cx="2.5" cy="2.5" r="2.5" transform="matrix(-1 0 0 1 55 60)" fill="#15313F"/>
<circle cx="2.5" cy="2.5" r="2.5" transform="matrix(-1 0 0 1 115 60)" fill="#15313F"/>
<circle cx="2.5" cy="2.5" r="2.5" transform="matrix(-1 0 0 1 145 60)" fill="#15313F"/>
<circle cx="2.5" cy="2.5" r="2.5" transform="matrix(-1 0 0 1 25 60)" fill="#15313F"/>
<circle cx="2.5" cy="2.5" r="2.5" transform="matrix(-1 0 0 1 85 60)" fill="#15313F"/>
<circle cx="2.5" cy="2.5" r="2.5" transform="matrix(-1 0 0 1 165 60)" fill="#15313F"/>
<circle cx="2.5" cy="2.5" r="2.5" transform="matrix(-1 0 0 1 45 60)" fill="#15313F"/>
<circle cx="2.5" cy="2.5" r="2.5" transform="matrix(-1 0 0 1 105 60)" fill="#15313F"/>
<circle cx="2.5" cy="2.5" r="2.5" transform="matrix(-1 0 0 1 135 60)" fill="#15313F"/>
<circle cx="2.5" cy="2.5" r="2.5" transform="matrix(-1 0 0 1 15 60)" fill="#15313F"/>
<circle cx="2.5" cy="2.5" r="2.5" transform="matrix(-1 0 0 1 75 60)" fill="#15313F"/>
<circle cx="2.5" cy="2.5" r="2.5" transform="matrix(-1 0 0 1 185 90)" fill="#15313F"/>
<circle cx="2.5" cy="2.5" r="2.5" transform="matrix(-1 0 0 1 65 90)" fill="#15313F"/>
<circle cx="2.5" cy="2.5" r="2.5" transform="matrix(-1 0 0 1 125 90)" fill="#15313F"/>
<circle cx="2.5" cy="2.5" r="2.5" transform="matrix(-1 0 0 1 5 90)" fill="#15313F"/>
<circle cx="2.5" cy="2.5" r="2.5" transform="matrix(-1 0 0 1 155 90)" fill="#15313F"/>
<circle cx="2.5" cy="2.5" r="2.5" transform="matrix(-1 0 0 1 35 90)" fill="#15313F"/>
<circle cx="2.5" cy="2.5" r="2.5" transform="matrix(-1 0 0 1 95 90)" fill="#15313F"/>
<circle cx="2.5" cy="2.5" r="2.5" transform="matrix(-1 0 0 1 175 90)" fill="#15313F"/>
<circle cx="2.5" cy="2.5" r="2.5" transform="matrix(-1 0 0 1 55 90)" fill="#15313F"/>
<circle cx="2.5" cy="2.5" r="2.5" transform="matrix(-1 0 0 1 115 90)" fill="#15313F"/>
<circle cx="2.5" cy="2.5" r="2.5" transform="matrix(-1 0 0 1 145 90)" fill="#15313F"/>
<circle cx="2.5" cy="2.5" r="2.5" transform="matrix(-1 0 0 1 25 90)" fill="#15313F"/>
<circle cx="2.5" cy="2.5" r="2.5" transform="matrix(-1 0 0 1 85 90)" fill="#15313F"/>
<circle cx="2.5" cy="2.5" r="2.5" transform="matrix(-1 0 0 1 165 90)" fill="#15313F"/>
<circle cx="2.5" cy="2.5" r="2.5" transform="matrix(-1 0 0 1 45 90)" fill="#15313F"/>
<circle cx="2.5" cy="2.5" r="2.5" transform="matrix(-1 0 0 1 105 90)" fill="#15313F"/>
<circle cx="2.5" cy="2.5" r="2.5" transform="matrix(-1 0 0 1 135 90)" fill="#15313F"/>
<circle cx="2.5" cy="2.5" r="2.5" transform="matrix(-1 0 0 1 15 90)" fill="#15313F"/>
<circle cx="2.5" cy="2.5" r="2.5" transform="matrix(-1 0 0 1 75 90)" fill="#15313F"/>
<circle cx="2.5" cy="2.5" r="2.5" transform="matrix(-1 0 0 1 185 120)" fill="#15313F"/>
<circle cx="2.5" cy="2.5" r="2.5" transform="matrix(-1 0 0 1 65 120)" fill="#15313F"/>
<circle cx="2.5" cy="2.5" r="2.5" transform="matrix(-1 0 0 1 125 120)" fill="#15313F"/>
<circle cx="2.5" cy="2.5" r="2.5" transform="matrix(-1 0 0 1 5 120)" fill="#15313F"/>
<circle cx="2.5" cy="2.5" r="2.5" transform="matrix(-1 0 0 1 155 120)" fill="#15313F"/>
<circle cx="2.5" cy="2.5" r="2.5" transform="matrix(-1 0 0 1 35 120)" fill="#15313F"/>
<circle cx="2.5" cy="2.5" r="2.5" transform="matrix(-1 0 0 1 95 120)" fill="#15313F"/>
<circle cx="2.5" cy="2.5" r="2.5" transform="matrix(-1 0 0 1 175 120)" fill="#15313F"/>
<circle cx="2.5" cy="2.5" r="2.5" transform="matrix(-1 0 0 1 55 120)" fill="#15313F"/>
<circle cx="2.5" cy="2.5" r="2.5" transform="matrix(-1 0 0 1 115 120)" fill="#15313F"/>
<circle cx="2.5" cy="2.5" r="2.5" transform="matrix(-1 0 0 1 145 120)" fill="#15313F"/>
<circle cx="2.5" cy="2.5" r="2.5" transform="matrix(-1 0 0 1 25 120)" fill="#15313F"/>
<circle cx="2.5" cy="2.5" r="2.5" transform="matrix(-1 0 0 1 85 120)" fill="#15313F"/>
<circle cx="2.5" cy="2.5" r="2.5" transform="matrix(-1 0 0 1 165 120)" fill="#15313F"/>
<circle cx="2.5" cy="2.5" r="2.5" transform="matrix(-1 0 0 1 45 120)" fill="#15313F"/>
<circle cx="2.5" cy="2.5" r="2.5" transform="matrix(-1 0 0 1 105 120)" fill="#15313F"/>
<circle cx="2.5" cy="2.5" r="2.5" transform="matrix(-1 0 0 1 135 120)" fill="#15313F"/>
<circle cx="2.5" cy="2.5" r="2.5" transform="matrix(-1 0 0 1 15 120)" fill="#15313F"/>
<circle cx="2.5" cy="2.5" r="2.5" transform="matrix(-1 0 0 1 75 120)" fill="#15313F"/>
<circle cx="2.5" cy="2.5" r="2.5" transform="matrix(-1 0 0 1 185 10)" fill="#15313F"/>
<circle cx="2.5" cy="2.5" r="2.5" transform="matrix(-1 0 0 1 65 10)" fill="#15313F"/>
<circle cx="2.5" cy="2.5" r="2.5" transform="matrix(-1 0 0 1 125 10)" fill="#15313F"/>
<circle cx="2.5" cy="2.5" r="2.5" transform="matrix(-1 0 0 1 5 10)" fill="#15313F"/>
<circle cx="2.5" cy="2.5" r="2.5" transform="matrix(-1 0 0 1 155 10)" fill="#15313F"/>
<circle cx="2.5" cy="2.5" r="2.5" transform="matrix(-1 0 0 1 35 10)" fill="#15313F"/>
<circle cx="2.5" cy="2.5" r="2.5" transform="matrix(-1 0 0 1 95 10)" fill="#15313F"/>
<circle cx="2.5" cy="2.5" r="2.5" transform="matrix(-1 0 0 1 175 10)" fill="#15313F"/>
<circle cx="2.5" cy="2.5" r="2.5" transform="matrix(-1 0 0 1 55 10)" fill="#15313F"/>
<circle cx="2.5" cy="2.5" r="2.5" transform="matrix(-1 0 0 1 115 10)" fill="#15313F"/>
<circle cx="2.5" cy="2.5" r="2.5" transform="matrix(-1 0 0 1 145 10)" fill="#15313F"/>
<circle cx="2.5" cy="2.5" r="2.5" transform="matrix(-1 0 0 1 25 10)" fill="#15313F"/>
<circle cx="2.5" cy="2.5" r="2.5" transform="matrix(-1 0 0 1 85 10)" fill="#15313F"/>
<circle cx="2.5" cy="2.5" r="2.5" transform="matrix(-1 0 0 1 165 10)" fill="#15313F"/>
<circle cx="2.5" cy="2.5" r="2.5" transform="matrix(-1 0 0 1 45 10)" fill="#15313F"/>
<circle cx="2.5" cy="2.5" r="2.5" transform="matrix(-1 0 0 1 105 10)" fill="#15313F"/>
<circle cx="2.5" cy="2.5" r="2.5" transform="matrix(-1 0 0 1 135 10)" fill="#15313F"/>
<circle cx="2.5" cy="2.5" r="2.5" transform="matrix(-1 0 0 1 15 10)" fill="#15313F"/>
<circle cx="2.5" cy="2.5" r="2.5" transform="matrix(-1 0 0 1 75 10)" fill="#15313F"/>
<circle cx="2.5" cy="2.5" r="2.5" transform="matrix(-1 0 0 1 185 50)" fill="#15313F"/>
<circle cx="2.5" cy="2.5" r="2.5" transform="matrix(-1 0 0 1 65 50)" fill="#15313F"/>
<circle cx="2.5" cy="2.5" r="2.5" transform="matrix(-1 0 0 1 125 50)" fill="#15313F"/>
<circle cx="2.5" cy="2.5" r="2.5" transform="matrix(-1 0 0 1 5 50)" fill="#15313F"/>
<circle cx="2.5" cy="2.5" r="2.5" transform="matrix(-1 0 0 1 155 50)" fill="#15313F"/>
<circle cx="2.5" cy="2.5" r="2.5" transform="matrix(-1 0 0 1 35 50)" fill="#15313F"/>
<circle cx="2.5" cy="2.5" r="2.5" transform="matrix(-1 0 0 1 95 50)" fill="#15313F"/>
<circle cx="2.5" cy="2.5" r="2.5" transform="matrix(-1 0 0 1 175 50)" fill="#15313F"/>
<circle cx="2.5" cy="2.5" r="2.5" transform="matrix(-1 0 0 1 55 50)" fill="#15313F"/>
<circle cx="2.5" cy="2.5" r="2.5" transform="matrix(-1 0 0 1 115 50)" fill="#15313F"/>
<circle cx="2.5" cy="2.5" r="2.5" transform="matrix(-1 0 0 1 145 50)" fill="#15313F"/>
<circle cx="2.5" cy="2.5" r="2.5" transform="matrix(-1 0 0 1 25 50)" fill="#15313F"/>
<circle cx="2.5" cy="2.5" r="2.5" transform="matrix(-1 0 0 1 85 50)" fill="#15313F"/>
<circle cx="2.5" cy="2.5" r="2.5" transform="matrix(-1 0 0 1 165 50)" fill="#15313F"/>
<circle cx="2.5" cy="2.5" r="2.5" transform="matrix(-1 0 0 1 45 50)" fill="#15313F"/>
<circle cx="2.5" cy="2.5" r="2.5" transform="matrix(-1 0 0 1 105 50)" fill="#15313F"/>
<circle cx="2.5" cy="2.5" r="2.5" transform="matrix(-1 0 0 1 135 50)" fill="#15313F"/>
<circle cx="2.5" cy="2.5" r="2.5" transform="matrix(-1 0 0 1 15 50)" fill="#15313F"/>
<circle cx="2.5" cy="2.5" r="2.5" transform="matrix(-1 0 0 1 75 50)" fill="#15313F"/>
<circle cx="2.5" cy="2.5" r="2.5" transform="matrix(-1 0 0 1 185 30)" fill="#15313F"/>
<circle cx="2.5" cy="2.5" r="2.5" transform="matrix(-1 0 0 1 65 30)" fill="#15313F"/>
<circle cx="2.5" cy="2.5" r="2.5" transform="matrix(-1 0 0 1 125 30)" fill="#15313F"/>
<circle cx="2.5" cy="2.5" r="2.5" transform="matrix(-1 0 0 1 5 30)" fill="#15313F"/>
<circle cx="2.5" cy="2.5" r="2.5" transform="matrix(-1 0 0 1 155 30)" fill="#15313F"/>
<circle cx="2.5" cy="2.5" r="2.5" transform="matrix(-1 0 0 1 35 30)" fill="#15313F"/>
<circle cx="2.5" cy="2.5" r="2.5" transform="matrix(-1 0 0 1 95 30)" fill="#15313F"/>
<circle cx="2.5" cy="2.5" r="2.5" transform="matrix(-1 0 0 1 175 30)" fill="#15313F"/>
<circle cx="2.5" cy="2.5" r="2.5" transform="matrix(-1 0 0 1 55 30)" fill="#15313F"/>
<circle cx="2.5" cy="2.5" r="2.5" transform="matrix(-1 0 0 1 115 30)" fill="#15313F"/>
<circle cx="2.5" cy="2.5" r="2.5" transform="matrix(-1 0 0 1 145 30)" fill="#15313F"/>
<circle cx="2.5" cy="2.5" r="2.5" transform="matrix(-1 0 0 1 25 30)" fill="#15313F"/>
<circle cx="2.5" cy="2.5" r="2.5" transform="matrix(-1 0 0 1 85 30)" fill="#15313F"/>
<circle cx="2.5" cy="2.5" r="2.5" transform="matrix(-1 0 0 1 165 30)" fill="#15313F"/>
<circle cx="2.5" cy="2.5" r="2.5" transform="matrix(-1 0 0 1 45 30)" fill="#15313F"/>
<circle cx="2.5" cy="2.5" r="2.5" transform="matrix(-1 0 0 1 105 30)" fill="#15313F"/>
<circle cx="2.5" cy="2.5" r="2.5" transform="matrix(-1 0 0 1 135 30)" fill="#15313F"/>
<circle cx="2.5" cy="2.5" r="2.5" transform="matrix(-1 0 0 1 15 30)" fill="#15313F"/>
<circle cx="2.5" cy="2.5" r="2.5" transform="matrix(-1 0 0 1 75 30)" fill="#15313F"/>
<circle cx="2.5" cy="2.5" r="2.5" transform="matrix(-1 0 0 1 185 70)" fill="#15313F"/>
<circle cx="2.5" cy="2.5" r="2.5" transform="matrix(-1 0 0 1 65 70)" fill="#15313F"/>
<circle cx="2.5" cy="2.5" r="2.5" transform="matrix(-1 0 0 1 125 70)" fill="#15313F"/>
<circle cx="2.5" cy="2.5" r="2.5" transform="matrix(-1 0 0 1 5 70)" fill="#15313F"/>
<circle cx="2.5" cy="2.5" r="2.5" transform="matrix(-1 0 0 1 155 70)" fill="#15313F"/>
<circle cx="2.5" cy="2.5" r="2.5" transform="matrix(-1 0 0 1 35 70)" fill="#15313F"/>
<circle cx="2.5" cy="2.5" r="2.5" transform="matrix(-1 0 0 1 95 70)" fill="#15313F"/>
<circle cx="2.5" cy="2.5" r="2.5" transform="matrix(-1 0 0 1 175 70)" fill="#15313F"/>
<circle cx="2.5" cy="2.5" r="2.5" transform="matrix(-1 0 0 1 55 70)" fill="#15313F"/>
<circle cx="2.5" cy="2.5" r="2.5" transform="matrix(-1 0 0 1 115 70)" fill="#15313F"/>
<circle cx="2.5" cy="2.5" r="2.5" transform="matrix(-1 0 0 1 145 70)" fill="#15313F"/>
<circle cx="2.5" cy="2.5" r="2.5" transform="matrix(-1 0 0 1 25 70)" fill="#15313F"/>
<circle cx="2.5" cy="2.5" r="2.5" transform="matrix(-1 0 0 1 85 70)" fill="#15313F"/>
<circle cx="2.5" cy="2.5" r="2.5" transform="matrix(-1 0 0 1 165 70)" fill="#15313F"/>
<circle cx="2.5" cy="2.5" r="2.5" transform="matrix(-1 0 0 1 45 70)" fill="#15313F"/>
<circle cx="2.5" cy="2.5" r="2.5" transform="matrix(-1 0 0 1 105 70)" fill="#15313F"/>
<circle cx="2.5" cy="2.5" r="2.5" transform="matrix(-1 0 0 1 135 70)" fill="#15313F"/>
<circle cx="2.5" cy="2.5" r="2.5" transform="matrix(-1 0 0 1 15 70)" fill="#15313F"/>
<circle cx="2.5" cy="2.5" r="2.5" transform="matrix(-1 0 0 1 75 70)" fill="#15313F"/>
<circle cx="2.5" cy="2.5" r="2.5" transform="matrix(-1 0 0 1 185 100)" fill="#15313F"/>
<circle cx="2.5" cy="2.5" r="2.5" transform="matrix(-1 0 0 1 65 100)" fill="#15313F"/>
<circle cx="2.5" cy="2.5" r="2.5" transform="matrix(-1 0 0 1 125 100)" fill="#15313F"/>
<circle cx="2.5" cy="2.5" r="2.5" transform="matrix(-1 0 0 1 5 100)" fill="#15313F"/>
<circle cx="2.5" cy="2.5" r="2.5" transform="matrix(-1 0 0 1 155 100)" fill="#15313F"/>
<circle cx="2.5" cy="2.5" r="2.5" transform="matrix(-1 0 0 1 35 100)" fill="#15313F"/>
<circle cx="2.5" cy="2.5" r="2.5" transform="matrix(-1 0 0 1 95 100)" fill="#15313F"/>
<circle cx="2.5" cy="2.5" r="2.5" transform="matrix(-1 0 0 1 175 100)" fill="#15313F"/>
<circle cx="2.5" cy="2.5" r="2.5" transform="matrix(-1 0 0 1 55 100)" fill="#15313F"/>
<circle cx="2.5" cy="2.5" r="2.5" transform="matrix(-1 0 0 1 115 100)" fill="#15313F"/>
<circle cx="2.5" cy="2.5" r="2.5" transform="matrix(-1 0 0 1 145 100)" fill="#15313F"/>
<circle cx="2.5" cy="2.5" r="2.5" transform="matrix(-1 0 0 1 25 100)" fill="#15313F"/>
<circle cx="2.5" cy="2.5" r="2.5" transform="matrix(-1 0 0 1 85 100)" fill="#15313F"/>
<circle cx="2.5" cy="2.5" r="2.5" transform="matrix(-1 0 0 1 165 100)" fill="#15313F"/>
<circle cx="2.5" cy="2.5" r="2.5" transform="matrix(-1 0 0 1 45 100)" fill="#15313F"/>
<circle cx="2.5" cy="2.5" r="2.5" transform="matrix(-1 0 0 1 105 100)" fill="#15313F"/>
<circle cx="2.5" cy="2.5" r="2.5" transform="matrix(-1 0 0 1 135 100)" fill="#15313F"/>
<circle cx="2.5" cy="2.5" r="2.5" transform="matrix(-1 0 0 1 15 100)" fill="#15313F"/>
<circle cx="2.5" cy="2.5" r="2.5" transform="matrix(-1 0 0 1 75 100)" fill="#15313F"/>
<circle cx="2.5" cy="2.5" r="2.5" transform="matrix(-1 0 0 1 185 130)" fill="#15313F"/>
<circle cx="2.5" cy="2.5" r="2.5" transform="matrix(-1 0 0 1 65 130)" fill="#15313F"/>
<circle cx="2.5" cy="2.5" r="2.5" transform="matrix(-1 0 0 1 125 130)" fill="#15313F"/>
<circle cx="2.5" cy="2.5" r="2.5" transform="matrix(-1 0 0 1 5 130)" fill="#15313F"/>
<circle cx="2.5" cy="2.5" r="2.5" transform="matrix(-1 0 0 1 155 130)" fill="#15313F"/>
<circle cx="2.5" cy="2.5" r="2.5" transform="matrix(-1 0 0 1 35 130)" fill="#15313F"/>
<circle cx="2.5" cy="2.5" r="2.5" transform="matrix(-1 0 0 1 95 130)" fill="#15313F"/>
<circle cx="2.5" cy="2.5" r="2.5" transform="matrix(-1 0 0 1 175 130)" fill="#15313F"/>
<circle cx="2.5" cy="2.5" r="2.5" transform="matrix(-1 0 0 1 55 130)" fill="#15313F"/>
<circle cx="2.5" cy="2.5" r="2.5" transform="matrix(-1 0 0 1 115 130)" fill="#15313F"/>
<circle cx="2.5" cy="2.5" r="2.5" transform="matrix(-1 0 0 1 145 130)" fill="#15313F"/>
<circle cx="2.5" cy="2.5" r="2.5" transform="matrix(-1 0 0 1 25 130)" fill="#15313F"/>
<circle cx="2.5" cy="2.5" r="2.5" transform="matrix(-1 0 0 1 85 130)" fill="#15313F"/>
<circle cx="2.5" cy="2.5" r="2.5" transform="matrix(-1 0 0 1 165 130)" fill="#15313F"/>
<circle cx="2.5" cy="2.5" r="2.5" transform="matrix(-1 0 0 1 45 130)" fill="#15313F"/>
<circle cx="2.5" cy="2.5" r="2.5" transform="matrix(-1 0 0 1 105 130)" fill="#15313F"/>
<circle cx="2.5" cy="2.5" r="2.5" transform="matrix(-1 0 0 1 135 130)" fill="#15313F"/>
<circle cx="2.5" cy="2.5" r="2.5" transform="matrix(-1 0 0 1 15 130)" fill="#15313F"/>
<circle cx="2.5" cy="2.5" r="2.5" transform="matrix(-1 0 0 1 75 130)" fill="#15313F"/>
</svg>
