<svg width="161" height="227" viewBox="0 0 161 227" fill="none" xmlns="http://www.w3.org/2000/svg">
<path fill-rule="evenodd" clip-rule="evenodd" d="M38.642 2.57025C38.7204 2.66536 38.7204 2.66538 38.7203 2.66544L38.7191 2.66646L38.7133 2.67124L38.6886 2.69178C38.6663 2.71033 38.6325 2.73856 38.5876 2.7763C38.4978 2.85178 38.3637 2.9653 38.1887 3.1155C37.8387 3.41591 37.3252 3.86298 36.6759 4.44583C35.3772 5.61165 33.536 7.31999 31.3735 9.4838C27.0463 13.8137 21.444 19.9561 16.3285 27.2152C6.05158 41.7985 -2.04208 60.5665 5.50288 78.185C10.2461 89.261 20.4716 98.3032 31.8803 103.751C32.849 102.484 33.8718 101.258 34.9394 100.085C42.4554 91.8278 52.5019 85.8756 61.9906 87.2958C67.1384 88.0662 72.0917 90.5733 74.6128 93.9809C75.8897 95.7068 76.5739 97.7142 76.2463 99.841C75.9198 101.961 74.6146 104.028 72.2572 105.936C63.4158 113.091 48.9447 112.706 35.535 107.507C34.5244 107.115 33.5175 106.695 32.517 106.248C27.3853 113.381 24.1611 121.521 24.329 128.296C24.6953 143.071 32.0104 156.139 42.9194 167.472C53.8301 178.807 68.2718 188.337 82.7203 196.011C97.1614 203.681 111.564 209.473 122.36 213.349C127.757 215.286 132.25 216.743 135.391 217.715C136.962 218.201 138.194 218.566 139.033 218.809C139.453 218.931 139.774 219.022 139.989 219.082C140.097 219.112 140.178 219.135 140.232 219.15L140.293 219.167L140.308 219.171L140.311 219.172C140.312 219.172 140.312 219.172 140.049 220.137L140.312 219.172C140.845 219.317 141.159 219.867 141.014 220.4C140.869 220.932 140.32 221.247 139.787 221.102L140.049 220.137C139.787 221.102 139.786 221.102 139.785 221.101L139.781 221.1L139.764 221.095L139.699 221.078C139.675 221.071 139.645 221.063 139.61 221.053C139.565 221.04 139.511 221.025 139.449 221.008C139.228 220.946 138.902 220.853 138.477 220.73C137.627 220.484 136.383 220.116 134.8 219.626C131.634 218.646 127.113 217.18 121.685 215.231C110.831 211.335 96.3338 205.506 81.7821 197.777C67.2379 190.052 52.5932 180.406 41.4785 168.859C30.3619 157.31 22.7125 143.791 22.3297 128.346C22.1504 121.113 25.4902 112.698 30.6734 105.389C19.0732 99.766 8.59504 90.4861 3.66437 78.9723C-4.31822 60.3319 4.33842 40.7575 14.6937 26.0631C19.8942 18.6833 25.5786 12.453 29.9589 8.07002C32.1502 5.87735 34.018 4.14414 35.3399 2.95753C36.0009 2.36416 36.5255 1.90729 36.8861 1.59782C37.0664 1.44308 37.2057 1.32518 37.3005 1.24547C37.3479 1.20561 37.3842 1.1753 37.4089 1.15471L37.4373 1.13114L37.4449 1.12485L37.447 1.12309C37.4476 1.1226 37.4481 1.12226 38.0842 1.89381L37.4481 1.12226C37.8742 0.770912 38.5044 0.831519 38.8558 1.25763C39.2071 1.68374 39.1465 2.314 38.7204 2.66535L38.642 2.57025ZM36.4184 101.432C35.4877 102.454 34.5952 103.515 33.7466 104.605C34.5793 104.97 35.417 105.316 36.258 105.642C49.4201 110.746 62.9937 110.86 70.999 104.381C73.0971 102.683 74.0405 101.024 74.2696 99.5365C74.4976 98.0562 74.0444 96.5752 73.005 95.1704C70.8936 92.3165 66.4987 89.9928 61.6945 89.2737C53.1964 88.0018 43.7703 93.3544 36.4184 101.432ZM139.719 226.293C139.106 226.426 138.553 226.159 138.484 225.699C138.415 225.238 138.856 224.757 139.469 224.625L157.832 220.658L153.037 206.484C152.889 206.044 153.253 205.532 153.852 205.341C154.45 205.149 155.056 205.35 155.204 205.79L160.306 220.872C160.384 221.101 160.323 221.362 160.14 221.588C159.956 221.815 159.667 221.984 159.348 222.053L139.719 226.293Z" fill="#FFA300"/>
</svg>
